<svg width="500" height="500" viewBox="0 0 500 500" fill="none" xmlns="http://www.w3.org/2000/svg">
<path d="M365.5 171.5V97C365.5 97 344.236 98.0361 331 101C322.86 102.823 318.316 104.086 310.5 107C300.762 110.631 295.393 113.121 286.5 118.5C277.077 124.2 272.16 128.104 264 135.5C257.963 140.972 254.851 144.356 249.5 150.5C244.753 155.95 242.04 159.007 238 165C232.677 172.895 230.518 177.868 226.5 186.5C222.506 195.08 220.145 199.914 217.5 209C214.834 218.156 213 233 213 233L212 403H286.5V338.5V266C286.5 266 285.22 247.754 289 233C292.949 217.585 298.076 209.07 309 197.5C319.15 186.75 333 179.5 340.5 176.5C348 173.5 365.5 171.5 365.5 171.5Z" fill="#1D73BC"/>
<path d="M288.5 100.5V97L135 97.5V173.5H214.5C214.5 173.5 221.171 160.593 226.5 153C231.282 146.185 234.358 142.622 240 136.5C245.522 130.509 248.81 127.297 255 122C263.071 115.093 267.699 111.133 277 106C281.358 103.594 288.5 100.5 288.5 100.5Z" fill="#1D73BC"/>
</svg>
